<svg id="Capa_1" enable-background="new 0 0 512 512" height="512" viewBox="0 0 512 512" width="512" xmlns="http://www.w3.org/2000/svg"><g><path d="m0 256c0-141.384 114.615-256 255.999-256 141.718 0 256.943 116.032 255.995 257.748-.705 105.526-65.259 195.889-156.962 234.393-4.285 1.799-9.089 1.865-13.469.312-26.755-9.486-55.556-14.648-85.563-14.648-30.135 0-59.053 5.207-85.905 14.77-4.158 1.481-8.721 1.409-12.793-.294-92.387-38.637-157.302-129.878-157.302-236.281z" fill="#55a4f9"/><path d="m355.435 491.971c-30.571 12.898-64.17 20.029-99.435 20.029s-68.864-7.131-99.435-20.029l36.7-111.971h125.469z" fill="#bed3e3"/><path d="m189.22 503.202c-11.208-3.021-22.112-6.783-32.655-11.231l36.7-111.971h36.336z" fill="#9abbd4"/><path d="m342.049 16.828-78.955 78.955c-1.946 1.946-4.548 2.834-7.094 2.666-2.545.168-5.148-.72-7.094-2.666l-78.955-78.955c-3.581-3.581-3.581-9.388 0-12.969l1.173-1.174c3.581-3.581 9.387-3.581 12.969 0l71.907 71.907 71.906-71.906c3.581-3.581 9.387-3.581 12.969 0l1.173 1.174c3.582 3.58 3.582 9.387.001 12.968z" fill="#2b4d66"/><path d="m472 85.143v319.714c0 8.285-6.716 15-15 15h-402c-8.284 0-15-6.715-15-15v-319.714c0-8.284 6.716-15 15-15h402c8.284 0 15 6.715 15 15z" fill="#355f7e"/><path d="m432.5 106.777v276.445h-353v-276.445z" fill="#c8e2fd"/><path d="m432.5 106.777v276.445h-242.014c-25.623-39.868-40.486-87.309-40.486-138.222s14.863-98.354 40.486-138.223z" fill="#e9f3fe"/><path d="m432.5 99.277h-353c-4.142 0-7.5 3.357-7.5 7.5v276.445c0 4.143 3.358 7.5 7.5 7.5h353c4.143 0 7.5-3.357 7.5-7.5v-276.445c0-4.142-3.357-7.5-7.5-7.5zm-7.5 276.446h-338v-261.446h338z" fill="#2b4d66"/><path d="m340.346 247.018c0 46.583-37.763 84.346-84.346 84.346s-84.346-37.763-84.346-84.346 37.763-84.346 84.346-84.346 84.346 37.764 84.346 84.346z" fill="#82cd64"/><path d="m240.081 329.864c-38.972-7.444-68.427-41.705-68.427-82.846s29.455-75.402 68.427-82.846c-21.682 18.322-35.848 48.598-35.848 82.846s14.166 64.524 35.848 82.846z" fill="#6dc54a"/><path d="m345.346 244.758c0-49.266-40.08-89.346-89.346-89.346s-89.346 40.08-89.346 89.346c0 47.772 37.687 86.907 84.891 89.236 2.194.116 6.917.091 8.91 0 47.204-2.329 84.891-41.464 84.891-89.236zm-86.711 79.302c-.875.029-1.753.043-2.635.043s-1.76-.015-2.635-.043c-7.95-3.144-16.045-20.102-20.024-44.519h45.318c-3.98 24.417-12.074 41.376-20.024 44.519zm-26.64-54.519c-.76-7.069-1.182-14.618-1.182-22.522s.422-15.454 1.182-22.523h48.01c.76 7.069 1.182 14.619 1.182 22.523s-.422 15.453-1.182 22.522zm-55.341-24.783c0-7 .911-13.792 2.622-20.263h42.686c-.762 7.415-1.149 15.011-1.149 22.523s.386 15.108 1.149 22.522h-41.344c-2.572-7.8-3.964-16.131-3.964-24.782zm79.346-75.31c8.739 0 18.238 17.921 22.659 45.047h-45.318c4.421-27.126 13.92-45.047 22.659-45.047zm34.038 55.047h42.686c1.71 6.471 2.622 13.262 2.622 20.263 0 8.651-1.392 16.982-3.963 24.783h-41.345c.762-7.415 1.149-15.01 1.149-22.522 0-7.513-.387-15.109-1.149-22.524zm39.31-10h-40.586c-3.108-20.271-9.167-38.145-17.952-47.697 26.539 5.031 48.444 23.323 58.538 47.697zm-88.159-47.697c-8.785 9.552-14.843 27.425-17.952 47.697h-40.586c10.094-24.374 31.999-42.665 58.538-47.697zm-56.497 112.743h38.545c2.592 16.902 7.235 32.138 13.799 42.272-23.024-5.667-42.128-21.414-52.344-42.272zm90.271 42.272c6.564-10.134 11.207-25.37 13.799-42.272h38.546c-10.216 20.858-29.32 36.605-52.345 42.272z" fill="#5ca33b"/><path d="m400 102v100c0 8.284-6.716 15-15 15h-100c-8.284 0-15-6.716-15-15v-100c0-8.284 6.716-15 15-15h100c8.284 0 15 6.716 15 15z" fill="#f44545"/><path d="m512 102v100c0 8.284-6.716 15-15 15h-112c-30.376 0-55-24.625-55-55v-20c0-30.375 24.624-55 55-55h112c8.284 0 15 6.716 15 15z" fill="#fb5858"/><path d="m335.625 177.908c.019 3.313-2.652 6.015-5.967 6.033-5.91.033-9.946.047-12.723.047-5.754 0-6.102-.06-6.53-.134-2.88-.494-4.984-2.991-4.984-5.913v-51.945c0-3.313 2.687-6 6-6s6 2.687 6 6v45.989c3.44-.004 7.961-.021 12.171-.044h.034c3.298 0 5.98 2.664 5.999 5.967zm22.54-57.892c-3.313 0-6 2.687-6 6v51.988c0 3.313 2.687 6 6 6s6-2.687 6-6v-51.988c0-3.314-2.686-6-6-6zm117.414 51.513h-15.705v-13.757h14.105c3.313 0 6-2.687 6-6s-2.687-6-6-6h-14.105v-13.757h15.705c3.313 0 6-2.687 6-6s-2.687-6-6-6h-21.705c-3.313 0-6 2.687-6 6v51.514c0 3.313 2.687 6 6 6h21.705c3.313 0 6-2.687 6-6s-2.686-6-6-6zm-48.706-51.113c-3.146-1.041-6.542.658-7.586 3.803l-12.491 37.604-13.112-37.774c-1.087-3.131-4.506-4.79-7.636-3.7-3.13 1.086-4.787 4.505-3.7 7.636l17.789 51.25c1.017 2.858 3.729 4.771 6.76 4.771h.05c3.05-.021 5.759-1.976 6.755-4.904l16.975-51.098c1.043-3.147-.659-6.543-3.804-7.588z" fill="#fff"/></g></svg>